<?xml version="1.0" standalone="no"?>
<!DOCTYPE svg PUBLIC "-//W3C//DTD SVG 20010904//EN"
 "http://www.w3.org/TR/2001/REC-SVG-20010904/DTD/svg10.dtd">
<svg version="1.0" xmlns="http://www.w3.org/2000/svg"
 width="512.000000pt" height="512.000000pt" viewBox="0 0 512.000000 512.000000"
 preserveAspectRatio="xMidYMid meet">
<metadata>
Created by potrace 1.14, written by Peter Selinger 2001-2017
</metadata>
<g transform="translate(0.000000,512.000000) scale(0.100000,-0.100000)"
fill="#000000" stroke="none">
<path d="M2409 4536 c-2 -2 -31 -6 -64 -10 -33 -3 -87 -11 -120 -17 -33 -5
-69 -12 -80 -14 -11 -1 -46 -11 -79 -20 -32 -9 -64 -18 -70 -19 -6 -1 -36 -11
-66 -21 -30 -11 -57 -20 -60 -20 -3 -1 -18 -7 -33 -13 -16 -7 -30 -12 -33 -12
-3 0 -58 -26 -123 -59 -112 -55 -281 -161 -346 -216 -102 -87 -130 -113 -193
-178 -98 -101 -163 -182 -229 -283 -7 -11 -23 -35 -36 -54 -12 -19 -36 -60
-51 -90 -16 -30 -42 -80 -58 -110 -15 -30 -28 -57 -28 -61 0 -4 -8 -24 -17
-45 -9 -22 -17 -41 -18 -44 0 -3 -11 -34 -22 -70 -19 -56 -34 -108 -50 -170
-2 -8 -6 -24 -8 -35 -1 -11 -8 -47 -14 -80 -21 -106 -25 -166 -26 -330 0 -178
3 -209 40 -421 9 -55 98 -332 118 -369 6 -11 12 -22 12 -25 1 -6 65 -132 93
-182 192 -341 530 -646 897 -810 88 -40 235 -93 299 -109 23 -5 50 -12 61 -15
40 -10 165 -33 235 -42 70 -9 367 -9 440 0 30 4 82 12 115 19 33 6 69 13 80
14 11 2 47 11 80 20 33 10 68 19 78 21 75 14 427 172 435 195 2 5 8 9 14 9 13
0 161 98 203 135 17 14 50 43 76 65 114 98 268 274 346 396 7 10 25 37 39 59
25 37 144 268 144 279 0 2 5 17 12 33 6 15 12 30 13 33 0 3 9 30 20 60 10 30
20 60 21 65 1 6 7 30 15 55 7 25 14 50 15 55 9 31 34 173 42 235 9 72 9 370 0
440 -4 30 -12 82 -19 115 -6 33 -12 69 -14 80 -9 79 -102 339 -167 468 -176
355 -448 642 -788 833 -103 59 -258 133 -289 139 -9 2 -29 8 -44 14 -38 15
-207 63 -232 66 -11 2 -48 8 -83 15 -35 6 -78 13 -95 16 -36 6 -383 15 -388
10z"/>
</g>
</svg>
